<svg xmlns="http://www.w3.org/2000/svg" xmlns:xlink="http://www.w3.org/1999/xlink" version="1.1" x="0px" y="0px" viewBox="0 0 32 40" enable-background="new 0 0 32 32" xml:space="preserve"><path fill="#FFFFFF" d="M24,9H8C7.7255859,9,7.4633789,9.112793,7.2744141,9.3115234c-0.1884766,0.1992188-0.2875977,0.4672852-0.2729492,0.7412109  l1,19C8.0292969,29.5834961,8.4682617,30,9,30h14c0.5317383,0,0.9707031-0.4165039,0.9985352-0.9472656l1-19  c0.0146484-0.2739258-0.0844727-0.5419922-0.2729492-0.7412109C24.5366211,9.112793,24.2744141,9,24,9z M22.0512695,28H9.9487305  L9.0541992,11h13.8916016L22.0512695,28z M25,6h-4V5c0-1.6542969-1.3457031-3-3-3h-4c-1.6542969,0-3,1.3457031-3,3v1H7  C6.4477539,6,6,6.4477539,6,7s0.4477539,1,1,1h5h8h5c0.5522461,0,1-0.4477539,1-1S25.5522461,6,25,6z M13,6V5  c0-0.5512695,0.4487305-1,1-1h4c0.5512695,0,1,0.4487305,1,1v1H13z M18.0039063,24.909668l1-11  c0.0498047-0.550293,0.5375977-0.9526367,1.0864258-0.9057617c0.550293,0.050293,0.9555664,0.5366211,0.9057617,1.0864258l-1,11  C19.9487305,25.6098633,19.5126953,26,19.0009766,26c-0.0302734,0-0.0605469-0.0014648-0.0913086-0.0039063  C18.359375,25.9458008,17.9541016,25.4594727,18.0039063,24.909668z M15,25V14c0-0.5522461,0.4477539-1,1-1s1,0.4477539,1,1v11  c0,0.5522461-0.4477539,1-1,1S15,25.5522461,15,25z M12.0039063,25.090332l-1-11  c-0.0498047-0.5498047,0.3554688-1.0361328,0.9057617-1.0864258c0.5522461-0.0454102,1.0366211,0.3554688,1.0864258,0.9057617l1,11  c0.0498047,0.5498047-0.3554688,1.0361328-0.9057617,1.0864258C13.0595703,25.9985352,13.0292969,26,12.9990234,26  C12.4873047,26,12.0512695,25.6098633,12.0039063,25.090332z"/><text x="0" y="47" fill="#FFFFFF" font-size="5px" font-weight="bold" font-family="'Helvetica Neue', Helvetica, Arial-Unicode, Arial, Sans-serif">Created by maria icon</text><text x="0" y="52" fill="#FFFFFF" font-size="5px" font-weight="bold" font-family="'Helvetica Neue', Helvetica, Arial-Unicode, Arial, Sans-serif">from the Noun Project</text></svg>