<?xml version="1.0" standalone="no"?>
<!DOCTYPE svg PUBLIC "-//W3C//DTD SVG 20010904//EN"
 "http://www.w3.org/TR/2001/REC-SVG-20010904/DTD/svg10.dtd">
<svg version="1.0" xmlns="http://www.w3.org/2000/svg"
 width="125.000000pt" height="126.000000pt" viewBox="0 0 125.000000 126.000000"
 preserveAspectRatio="xMidYMid meet">
<metadata>
Created by potrace 1.10, written by Peter Selinger 2001-2011
</metadata>
<g transform="translate(0.000000,126.000000) scale(0.100000,-0.100000)"
fill="#acccd4" stroke="#acccd4">
<path d="M549 1141 c-48 -48 -30 -137 31 -156 18 -6 20 -16 20 -91 0 -62 -3
-84 -13 -84 -7 0 -29 -8 -50 -19 l-36 -18 -60 59 c-54 54 -59 62 -49 83 23 51
-27 125 -84 125 -90 0 -136 -91 -81 -159 24 -29 74 -42 103 -27 20 10 28 5 82
-48 l60 -59 -16 -34 c-9 -19 -16 -41 -16 -51 0 -15 -11 -17 -86 -15 -85 1 -86
2 -105 32 -48 79 -160 53 -175 -41 -5 -29 -1 -41 24 -69 25 -28 37 -34 70 -34
42 0 92 34 92 62 0 10 22 13 90 13 72 0 90 -3 90 -15 0 -8 7 -30 16 -48 l16
-34 -57 -54 c-53 -50 -60 -54 -100 -51 -53 4 -80 -9 -101 -50 -22 -42 -11 -91
25 -118 76 -53 182 15 153 99 -10 28 -7 33 50 90 l60 60 36 -20 c20 -10 42
-19 49 -19 10 0 13 -23 13 -85 0 -81 -1 -86 -24 -95 -34 -13 -56 -48 -56 -91
0 -47 45 -89 95 -89 21 0 45 9 64 26 54 45 38 133 -29 156 -12 4 -14 21 -11
89 l3 84 45 21 44 22 58 -60 c57 -58 58 -60 53 -107 -4 -44 -2 -50 28 -74 44
-37 92 -36 131 2 41 41 40 91 -2 133 -27 28 -34 30 -78 25 -48 -6 -48 -5 -105
52 -57 57 -57 57 -41 87 8 16 15 37 15 47 0 15 11 17 90 17 77 0 92 -3 97 -17
19 -54 79 -76 131 -49 110 57 33 220 -81 172 -19 -8 -41 -26 -49 -41 -13 -26
-16 -27 -98 -28 l-85 0 -6 31 c-4 18 -12 39 -19 47 -11 14 -4 25 51 81 35 35
65 60 67 54 2 -5 22 -10 44 -10 54 0 98 43 98 95 0 27 -8 44 -29 66 -39 38
-87 39 -131 2 -30 -25 -32 -30 -27 -77 l4 -50 -59 -56 -60 -57 -36 18 c-20 11
-41 19 -47 19 -6 0 -8 29 -5 84 5 79 7 85 38 111 27 23 32 33 32 70 0 36 -5
48 -31 69 -43 36 -91 35 -130 -3z m111 -33 c11 -12 20 -28 20 -35 0 -19 -45
-63 -65 -63 -22 0 -55 37 -55 62 0 53 63 76 100 36z m-314 -133 c19 -30 11
-60 -22 -82 -24 -15 -27 -15 -52 4 -36 26 -40 66 -10 87 33 23 65 20 84 -9z
m626 8 c31 -28 22 -70 -20 -92 -33 -18 -72 9 -72 49 0 53 53 79 92 43z m-281
-236 c117 -78 65 -257 -74 -257 -106 0 -172 114 -122 211 35 67 131 90 196 46z
m-485 -82 c18 -19 23 -31 19 -48 -15 -47 -61 -61 -95 -27 -38 38 -14 94 43 99
4 1 19 -10 33 -24z m902 3 c20 -17 14 -65 -10 -82 -44 -31 -88 -9 -88 44 0 50
55 71 98 38z m-761 -324 c15 -24 15 -29 2 -53 -26 -46 -109 -33 -109 18 0 58
75 83 107 35z m627 10 c20 -20 20 -58 0 -78 -18 -19 -65 -21 -82 -4 -16 16
-16 70 0 86 17 17 64 15 82 -4z m-314 -136 c24 -26 25 -37 4 -66 -29 -42 -104
-22 -104 28 0 57 60 80 100 38z" fill="#acccd4"/>
</g>
</svg>
