<svg xmlns="http://www.w3.org/2000/svg" xmlns:xlink="http://www.w3.org/1999/xlink" version="1.1" x="0px" y="0px" viewBox="0 0 100 125" style="enable-background:new 0 0 100 100;" xml:space="preserve"><style type="text/css">
	.st0{fill-rule:evenodd;clip-rule:evenodd;}
</style><path fill="#FFFFFF" d="M96.33,84.02L80.15,67.85c-1.52-1.52-3.69-1.98-5.63-1.42l-8.89-8.89c4.14-5.76,6.58-12.81,6.58-20.43  C72.21,17.75,56.46,2,37.1,2C17.75,2,2,17.75,2,37.1s15.75,35.1,35.1,35.1c7.62,0,14.67-2.45,20.43-6.58l8.89,8.89  c-0.15,0.51-0.25,1.04-0.25,1.59c0,1.53,0.59,2.97,1.67,4.05l16.18,16.18c1.12,1.12,2.58,1.67,4.05,1.67c1.47,0,2.93-0.56,4.05-1.67  l4.21-4.21C97.41,91.04,98,89.6,98,88.07C98,86.54,97.41,85.1,96.33,84.02z M5.1,37.1C5.1,19.45,19.46,5.1,37.1,5.1  c17.65,0,32.01,14.36,32.01,32.01S54.75,69.11,37.1,69.11C19.46,69.11,5.1,54.75,5.1,37.1z M63.7,59.98l8.11,8.11l-3.71,3.71  l-8.11-8.11C61.31,62.55,62.55,61.31,63.7,59.98z M94.14,89.93l-4.21,4.21c-1.02,1.02-2.69,1.02-3.72,0L70.04,77.96  c-0.49-0.49-0.77-1.15-0.77-1.86c0-0.7,0.27-1.36,0.77-1.86c0,0,0,0,0,0l4.21-4.21c0.51-0.51,1.19-0.77,1.86-0.77  c0.67,0,1.35,0.26,1.86,0.77l16.18,16.18c0.49,0.49,0.77,1.15,0.77,1.86C94.9,88.77,94.63,89.43,94.14,89.93z M37.1,9.15  C21.69,9.15,9.15,21.69,9.15,37.1c0,15.41,12.54,27.95,27.95,27.95c15.41,0,27.95-12.54,27.95-27.95  C65.06,21.69,52.52,9.15,37.1,9.15z M37.1,61.96c-13.71,0-24.86-11.15-24.86-24.86c0-13.71,11.15-24.86,24.86-24.86  c13.71,0,24.86,11.15,24.86,24.86C61.96,50.81,50.81,61.96,37.1,61.96z M25.1,49.11c0.6,0.6,0.6,1.59,0,2.19  c-0.3,0.3-0.7,0.45-1.09,0.45c-0.4,0-0.79-0.15-1.09-0.45c-0.67-0.67-1.29-1.38-1.85-2.13c-0.51-0.68-0.38-1.65,0.3-2.17  c0.68-0.51,1.65-0.38,2.17,0.3C24,47.94,24.53,48.55,25.1,49.11z M25.1,22.91c0.6,0.6,0.6,1.59,0,2.19  c-4.58,4.58-6.16,11.5-4.03,17.61c0.28,0.81-0.14,1.69-0.95,1.97c-0.17,0.06-0.34,0.09-0.51,0.09c-0.64,0-1.24-0.4-1.46-1.04  c-1.23-3.51-1.45-7.3-0.65-10.94c0.82-3.74,2.69-7.16,5.42-9.88C23.51,22.3,24.49,22.3,25.1,22.91z"/><text x="0" y="115" fill="#000000" font-size="5px" font-weight="bold" font-family="'Helvetica Neue', Helvetica, Arial-Unicode, Arial, Sans-serif">Created by Omah Icon</text><text x="0" y="120" fill="#000000" font-size="5px" font-weight="bold" font-family="'Helvetica Neue', Helvetica, Arial-Unicode, Arial, Sans-serif">from the Noun Project</text></svg>