<svg xmlns="http://www.w3.org/2000/svg" xmlns:xlink="http://www.w3.org/1999/xlink" version="1.1" x="0px" y="0px" viewBox="0 0 16 20" style="enable-background:new 0 0 16 16;" xml:space="preserve"><path fill="#FFFFFF" d="M14,2H2C1.448,2,1,2.448,1,3v10c0,0.552,0.448,1,1,1h12c0.552,0,1-0.448,1-1V3C15,2.448,14.552,2,14,2z M10,5v2H6V5H10z   M10,8v2H6V8H10z M2,5h3v2H2V5z M2,8h3v2H2V8z M2,13v-2h3v2H2z M6,13v-2h4v2H6z M14,13h-3v-2h3V13z M14,10h-3V8h3V10z M14,7h-3V5h3  V7z"/><text x="0" y="31" fill="#000000" font-size="5px" font-weight="bold" font-family="'Helvetica Neue', Helvetica, Arial-Unicode, Arial, Sans-serif">Created by icon 54</text><text x="0" y="36" fill="#000000" font-size="5px" font-weight="bold" font-family="'Helvetica Neue', Helvetica, Arial-Unicode, Arial, Sans-serif">from the Noun Project</text></svg>